# xmcd
#
# Track frame offsets: 
#        150
#        14440
#        27779
#        45833
#        65370
#        85035
#        94519
#        110256
#        133601
#        151353
#        161971
#        176268
#        193678
#        207983
#        228457
#        246032
#        263741
#        278557
#        296592
#        312568
#        338596
#
# Disc length: 4782 seconds
#
# Revision: 4
# Processed by: cddbd v1.5.2PL0 Copyright (c) Steve Scherf et al.
# Submitted via: ExactAudioCopy v1.3
#
DISCID=1612ac15
DTITLE=Various Artist - Akella Presents - vol. 10 - Americana  CD2
DYEAR=2013
DGENRE=Americana
TTITLE0=J.J.CALE and ERIC CLAPTON - Don't Cry Sister
TTITLE1=JOHNNY NICHOLAS - Don't Say I Never Told You So
TTITLE2=THREE HANKS - Hand Me Down
TTITLE3=JIMMY NAIL - Crocodile Shoes
TTITLE4=VINCE GILL - Wait Til Your Daddy Gets Home
TTITLE5=MARK KNOPFLER - An American Hero
TTITLE6=BIG HOUSE - Don't Believe Everything You're Told 
TTITLE7=HANK SHIZZOE - Be Good To Me
TTITLE8=BRENDAN CROKER - Running on Down the Road
TTITLE9=SEASICK STEVE - Prospect Lane
TTITLE10=SCOTT KEETON - Tom Joad and the Devil
TTITLE11=The NOTTING HILLBILLIES - Will You Miss Me
TTITLE12=CALVIN RUSSELL - 5m2
TTITLE13=MARIA MULDAUR - Wedding Song
TTITLE14=The WOOD BROTHERS - Luckiest Man
TTITLE15=TRIPLEX - Steel My Kisses
TTITLE16=GUY DAVIS - Natural Born Eas'Man
TTITLE17=REBA McENTIRE - Nobody Dies From a Broken Heart
TTITLE18=DAVE KNOPFLER - Means Of Survival
TTITLE19=ALBERT LEE and HOGAN'S HEROES - 'Til I Gain Control Again
TTITLE20=JUNIOR WELLS - What My Momma Told Me,That's All Right
EXTD=
EXTT0=
EXTT1=
EXTT2=
EXTT3=
EXTT4=
EXTT5=
EXTT6=
EXTT7=
EXTT8=
EXTT9=
EXTT10=
EXTT11=
EXTT12=
EXTT13=
EXTT14=
EXTT15=
EXTT16=
EXTT17=
EXTT18=
EXTT19=
EXTT20=
PLAYORDER=
